<svg width="20.000000" height="20.000000" viewBox="0 0 20 20" fill="none" xmlns="http://www.w3.org/2000/svg" xmlns:xlink="http://www.w3.org/1999/xlink">
	<desc>
			Created with Pixso.
	</desc>
	<defs/>
	<g opacity="0.300000">
		<path id="Subtract" d="M10.0004 18.3334C14.6027 18.3334 18.3336 14.6024 18.3336 10C18.3336 5.39764 14.6027 1.66668 10.0004 1.66668C5.39795 1.66668 1.66699 5.39764 1.66699 10C1.66699 14.6024 5.39795 18.3334 10.0004 18.3334ZM13.0896 6.91076C13.415 7.2362 13.415 7.76383 13.0896 8.08927L11.1788 10L13.0896 11.9108C13.415 12.2362 13.415 12.7638 13.0896 13.0893C12.7642 13.4147 12.2365 13.4147 11.911 13.0893L10.0004 11.1785L8.0896 13.0893C7.76416 13.4147 7.23645 13.4147 6.91101 13.0893C6.58569 12.7638 6.58569 12.2362 6.91101 11.9108L8.82178 10L6.91101 8.08927C6.58569 7.76383 6.58569 7.2362 6.91101 6.91076C7.23645 6.58533 7.76416 6.58533 8.0896 6.91076L10.0004 8.8215L11.911 6.91076C12.2365 6.58533 12.7642 6.58533 13.0896 6.91076Z" clip-rule="evenodd" fill="#333333" fill-opacity="1.000000" fill-rule="evenodd"/>
	</g>
</svg>
